<?xml version="1.0" encoding="utf-8"?>
<!-- Generator: Adobe Illustrator 25.0.1, SVG Export Plug-In . SVG Version: 6.00 Build 0)  -->
<svg version="1.1" id="Layer_1" xmlns="http://www.w3.org/2000/svg" xmlns:xlink="http://www.w3.org/1999/xlink" x="0px" y="0px"
	 viewBox="0 0 1140 342" style="enable-background:new 0 0 1140 342;" xml:space="preserve">
<style type="text/css">
	.st0{clip-path:url(#SVGID_2_);}
	.st1{fill:#36A7AA;}
	.st2{fill:#FFFFFF;}
</style>
<g>
	<defs>
		<rect id="SVGID_1_" y="0" width="1140" height="342"/>
	</defs>
	<clipPath id="SVGID_2_">
		<use xlink:href="#SVGID_1_"  style="overflow:visible;"/>
	</clipPath>
	<g class="st0">
		<path class="st1" d="M345.5,228.5C198.3,178.5,50,253.5,4,316l-58.5,72.5v-519H1165l17,394.5c-51.6-70.8-251-77.3-359.5-35.5
			S492.7,278.5,345.5,228.5z"/>
	</g>
	<g class="st0">
		<path class="st2" d="M291.4,116.9l13,14v25.6h7.9v8.1h-17.1l-1.4-37.5l-4.5-2l-13.2,6v25.4h8.1v8.1h-25.6v-8.1h8.3V106h-8.3V98
			h17.5v25.6L291.4,116.9L291.4,116.9z"/>
		<path class="st2" d="M366.5,143.8h-39l5.2,10.6l10.6,3.9l15.1-7.8l8.1,3.6l-23.4,12l-13.4-3.1l-9.1-8.8l0-25.3l8.8-8.8l25.1,0.1
			L366.5,143.8L366.5,143.8z M341.8,124.5l-9.1,3.5l-5,9.2h29.1l-5.4-9.2L341.8,124.5L341.8,124.5z"/>
		<path class="st2" d="M386.5,126.4l10.1,26.3l9.8-26.3h-6.2v-8.2h22.2v8.2h-6.9l-23,59.2H377v-8h9.2l5.5-13.7l-15.2-37.6h-7.8v-8.2
			H392v8.2H386.5L386.5,126.4L386.5,126.4z"/>
		<path class="st2" d="M423.2,178v-5l5.8-7.4l-0.1-0.9h-5.7v-11.8H435l-1,19.1l-3.6,4.3L423.2,178L423.2,178z"/>
		<path class="st2" d="M493.8,156.6v8.1h-23.5v-8.1h7.3v-30.2h-7.3v-8.2h16.4v38.4H493.8L493.8,156.6z M487.2,102.5l-1.6,3.9
			l-3.9,1.6l-3.9-1.6l-1.6-3.9l1.6-3.9l3.9-1.6l3.9,1.6L487.2,102.5L487.2,102.5z"/>
		<path class="st2" d="M508.6,110.6v-0.9h-5.8V98h11.8l-2.8,21.9l-9,3.1v-5L508.6,110.6L508.6,110.6z"/>
		<path class="st2" d="M532,156.6v-30.2h-7.8v-8.2h17v5.9l16.1-6.5l11.1,7.3l16.9-7.3l9,3.3l3.3,35.7h8.2v8.1h-17.2l-1.9-37.7
			l-4.1-1.3l-13,6v24.8h7.9v8.1h-17.1l-1.4-37.1l-4.5-1.9l-13.2,6v24.8h8.2v8.1h-25.7v-8.1H532L532,156.6z"/>
		<path class="st2" d="M692,156.6v8.1h-17.5v-6.8l-16.7,7.6l-11.9-3.2l-10.9-20.7l11.4-21.4l20.2-1.5l7.9,5.7V106h-9V98h18.1v58.6
			H692L692,156.6z M659.6,157.4l7.7-2.3l7.3-14.1l-7.4-13.6l-7.8-2.1l-7.5,2.2l-7.1,13.8l7.3,13.9L659.6,157.4L659.6,157.4z"/>
		<path class="st2" d="M745.5,141.5l-3.2,12.4l-8.8,8.9h-25l-8.7-8.9v-25.1l8.7-8.7l25.1,0.2L745.5,141.5L745.5,141.5z M721.1,157.2
			l7.5-2.1l7.2-13.6l-7.2-13.5l-7.6-2.2l-7.5,2.1l-7.3,13.6l7.4,13.6L721.1,157.2L721.1,157.2z"/>
		<path class="st2" d="M791.9,124.9v-6.7h17.5v8.2h-8.4v34.9l-6.1,18.8l-17.9,6.6l-19-6.3l5.9-6.6l6.4,3.5l7,1.2l10.8-4.3l3.9-11.4
			v-4.3l-16.9,7.6l-11.6-3.3l-11-20.6l11.3-21.3l20.3-1.6L791.9,124.9L791.9,124.9z M776.7,157.9l7.8-2.2l7.4-13.8l-7.4-13.6
			l-7.7-2.3l-7.6,2.2l-7.2,13.8l7,13.7L776.7,157.9L776.7,157.9z M778.2,104.7l8-7h6.8l-4.5,10l-10.3,3.6l-10.3-3.5l-4.6-10.1h6.9
			L778.2,104.7L778.2,104.7z"/>
		<path class="st2" d="M853.6,134.6v22h7.8v8.1h-15.9V159l-14.8,6.5l-13.6-7.3l-2.1-7.4l2.4-7.8l14.5-7.2l12.7,4l-2.3-12.8l-13.8-1
			l-4.1,4.1l-8.8-2.2l8-8.3l12-2.7l13.7,4.3L853.6,134.6L853.6,134.6z M831.9,158.5l12.6-5.6v-5.4l-12-4.7l-6.3,2.3l-2.6,5.7
			l2.3,5.5L831.9,158.5L831.9,158.5z"/>
	</g>
</g>
</svg>
